<svg version="1.1" viewBox="0.0 0.0 600.0 400.0" fill="none" stroke="none" stroke-linecap="square" stroke-miterlimit="10" xmlns:xlink="http://www.w3.org/1999/xlink" xmlns="http://www.w3.org/2000/svg"><clipPath id="p.0"><path d="m0 0l600.0 0l0 400.0l-600.0 0l0 -400.0z" clip-rule="nonzero"/></clipPath><g clip-path="url(#p.0)"><path fill="#f3f3f3" d="m0 0l600.0 0l0 400.0l-600.0 0z" fill-rule="evenodd"/><path fill="#e06666" d="m147.46875 20.371376c-10.291519 0 -19.33258 1.4730797 -27.123177 4.419239c-7.7906036 2.9461594 -14.312752 7.054079 -19.566475 12.323753c-5.253708 5.269676 -9.211975 11.518875 -11.874825 18.747597c-2.6448517 7.228718 -3.96727 15.133228 -3.96727 23.713543c0 8.959969 1.412384 17.061905 4.237152 24.305809c2.8247604 7.2287292 6.9179764 13.38681 12.279648 18.474243c5.361664 5.0722504 11.883812 8.96756 19.566475 11.685928c7.6826477 2.7031708 16.381866 4.054764 26.097626 4.054764c6.4232025 0 12.729446 -0.56188965 18.918762 -1.6856842c0 -3.3562012 0.026992798 -6.7124023 0.080963135 -10.068581c0.053970337 -3.371376 0.080963135 -6.8262787 0.080963135 -10.364708c0 -3.3561935 -0.026992798 -6.8035126 -0.080963135 -10.341934c-0.053970337 -3.5536118 -0.080963135 -6.9629517 -0.080963135 -10.228027c-2.5368958 1.3060303 -5.2717133 2.1944351 -8.204422 2.665207c-2.932724 0.45559692 -5.3436737 0.68338776 -7.232849 0.68338776c-4.0842285 0 -7.871582 -0.74412537 -11.362061 -2.232399c-3.4724731 -1.4882584 -6.513153 -3.515648 -9.122025 -6.0821457c-2.590866 -2.5664978 -4.60598 -5.57341 -6.0453568 -9.020714c-1.4213791 -3.462494 -2.1320724 -7.1527863 -2.1320724 -11.070877c0 -2.9005966 0.46779633 -5.960655 1.403389 -9.180172c0.935585 -3.219513 2.5368958 -6.1808586 4.8039017 -8.884037c2.2670135 -2.7031784 5.253708 -4.912796 8.960098 -6.6288567c3.7063904 -1.731247 8.321381 -2.5968742 13.844971 -2.5968742c5.8474426 0 10.8762665 1.1161995 15.086426 3.3485985c0 -1.9590416 0.026992798 -4.077545 0.080963135 -6.355503c0.053970337 -2.2931404 0.080963135 -4.464798 0.080963135 -6.5149574c0 -2.0501633 -0.026992798 -3.9636478 -0.080963135 -5.7404556c-0.053970337 -1.7768078 -0.080963135 -3.4549046 -0.080963135 -5.0342884c-2.5368958 -0.744133 -5.2717133 -1.3288097 -8.204422 -1.7540264c-2.932724 -0.4252205 -6.3872223 -0.6378288 -10.363495 -0.6378288z" fill-rule="evenodd"/><path fill="#e06666" d="m185.93517 20.371376c-2.7707825 0 -5.2626953 0.4707775 -7.4757385 1.4123344c-2.213028 0.9263687 -4.066223 2.1640606 -5.5595703 3.7130718c-1.475357 1.5338249 -2.635849 3.2346992 -3.481491 5.102625c-0.8276367 1.8679276 -1.2414551 3.6902924 -1.2414551 5.467102c0 1.7616196 0.35984802 3.4852753 1.0795288 5.1709633c0.7196808 1.685688 1.8262024 3.1587677 3.3195496 4.419239c1.4933624 1.2452812 3.3465424 2.2703629 5.5595856 3.075245c2.213028 0.7896919 4.7589264 1.184536 7.637665 1.184536c2.320984 0 4.498047 -0.39484406 6.5311584 -1.184536c2.0511017 -0.80488205 3.877304 -1.8831139 5.478607 -3.234703c1.6013031 -1.3515892 2.869751 -2.930973 3.8053436 -4.7381516c0.95358276 -1.8223686 1.4303741 -3.8117867 1.4303741 -5.9682503c0 -1.5793877 -0.38682556 -3.22711 -1.160492 -4.9431705c-0.7736664 -1.731247 -1.880188 -3.2954445 -3.3195496 -4.6925926c-1.4393768 -1.4123344 -3.2385864 -2.5589066 -5.397644 -3.4397163c-2.1590729 -0.895998 -4.56102 -1.343996 -7.2058716 -1.343996zm-12.765427 34.716084l0 81.45978l24.370377 0l0 -81.45978zm77.58188 -3.781414c-1.7632294 0 -3.670395 0.3037262 -5.7214966 0.9111862c-2.0331116 0.6074562 -4.075226 1.4503021 -6.126343 2.528534c-2.0331116 1.0630455 -3.9942474 2.3462944 -5.883438 3.8497467c-1.87117 1.488266 -3.4724731 3.1208038 -4.803894 4.8976097l-1.1605072 -10.638062l-20.888885 0c0 13.531071 -0.026992798 27.084919 -0.08097839 40.66155c-0.053970337 13.57663 -0.1439209 27.920174 -0.2698822 43.030632l24.397385 0l0 -38.77085c0 -2.4298172 0.9625702 -4.4572067 2.887741 -6.0821457c1.9431458 -1.6401291 4.956833 -2.4601974 9.041061 -2.4601974c1.223465 0 2.7168121 0.09870911 4.4800415 0.29613495c1.7632294 0.18223572 3.1396332 0.45559692 4.129196 0.82006836c0.23390198 -3.0676498 0.43180847 -6.4238434 0.59375 -10.068573c0.16192627 -3.6447372 0.2428894 -7.3274384 0.2428894 -11.048096c0 -3.2650757 -0.080963135 -6.4618073 -0.2428894 -9.590206c-0.16194153 -3.128395 -0.35984802 -5.907505 -0.59375 -8.33733z" fill-rule="evenodd"/><path fill="#e06666" d="m303.8163 51.306046c-8.060486 0 -15.104431 1.1010132 -21.131805 3.3030396c-6.0273743 2.18684 -11.056183 5.1937447 -15.086426 9.020714c-4.030243 3.826973 -7.0439453 8.420853 -9.041077 13.781647c-1.9971008 5.360794 -2.9956818 11.169586 -2.9956818 17.426384c0 6.6212616 1.0795441 12.619888 3.2386017 17.995865c2.1590576 5.3608017 5.2807007 9.909119 9.364899 13.644974c4.102234 3.7206726 9.077057 6.5908966 14.9244995 8.610672c5.865448 2.0046082 12.558533 3.0069122 20.079254 3.0069122c6.08136 0 12.216675 -0.56188965 18.405975 -1.6856842c0 -3.3562012 0.027008057 -6.7351685 0.080963135 -10.136917c0.053985596 -3.4169388 0.080963135 -6.757942 0.080963135 -10.023018c0 -3.3561935 -0.026977539 -6.6896133 -0.080963135 -10.0002365c-0.053955078 -3.3106384 -0.080963135 -6.5073776 -0.080963135 -9.590202c-2.2130127 1.3060303 -4.534027 2.3311157 -6.9629517 3.075241c-2.428955 0.744133 -4.749939 1.1162033 -6.962982 1.1162033c-2.320984 0 -4.507019 -0.39485168 -6.558136 -1.1845398c-2.051117 -0.7896881 -3.8503113 -1.88311 -5.397644 -3.2802582c-1.5473328 -1.3971481 -2.7618103 -3.0069046 -3.643402 -4.829277c-0.8816223 -1.8223648 -1.3224487 -3.7586288 -1.3224487 -5.808792c0 -1.5034485 0.26989746 -3.0676498 0.80966187 -4.692589c0.5577698 -1.6401291 1.5293274 -3.1587753 2.914734 -4.555916c1.3854065 -1.3971481 3.1846008 -2.5361252 5.397644 -3.4169388c2.2130432 -0.8959961 4.974823 -1.3439941 8.2854 -1.3439941c5.307678 0 9.78772 1.3060226 13.4401245 3.9180832c0 -1.6705017 0.027008057 -3.4852753 0.080963135 -5.4443207c0.053985596 -1.9590378 0.080963135 -3.9180832 0.080963135 -5.8771286c0 -1.8679276 -0.026977539 -3.7130737 -0.080963135 -5.5354385c-0.053955078 -1.8223648 -0.080963135 -3.523243 -0.080963135 -5.102627c-5.307678 -1.5945702 -11.227112 -2.3918571 -17.75824 -2.3918571z" fill-rule="evenodd"/><path fill="#e06666" d="m329.5339 18.845144c0 4.3888664 0 8.284176 0 11.685925c0 3.4017506 0.026977539 6.9249935 0.080963135 10.569727c0.053985596 3.629547 0.080963135 7.6615334 0.080963135 12.095959c0 4.4344254 0 9.825596 0 16.1735c0 14.548561 -0.053985596 27.327904 -0.16192627 38.338036c-0.107940674 11.010132 -0.33285522 20.623116 -0.67471313 28.838951l24.883179 0c0 -1.6856842 -0.027008057 -3.2954407 -0.080963135 -4.8292694c-0.053985596 -1.5338287 -0.080963135 -3.538437 -0.080963135 -6.013809c0 -2.47538 0 -5.649338 0 -9.521866c0 -3.872528 0 -8.982758 0 -15.330658c0 -15.0193405 0.13491821 -29.195831 0.40481567 -42.52948c0.26986694 -13.348835 0.6836853 -26.507841 1.2414551 -39.477013z" fill-rule="evenodd"/><path fill="#e06666" d="m405.62756 66.43169c2.5549011 0 4.9028625 0.9111862 7.0439453 2.733551c2.1590576 1.8071823 3.463501 4.578697 3.9132996 8.314552l-21.725555 0c0.66571045 -4.1003265 2.0421143 -6.962967 4.1292114 -8.587906c2.105072 -1.6401291 4.318115 -2.4601974 6.639099 -2.4601974zm-1.160492 -15.125641c-6.297241 0 -12.261658 1.0782318 -17.893188 3.234703c-4.6419983 1.7616196 -8.681244 4.1838455 -12.117737 7.2666855c-3.418518 3.0828323 -6.2342834 6.4693985 -8.447327 10.159691c-2.2130127 3.6751099 -3.8503113 7.547638 -4.9118347 11.617592c-1.0435486 4.054764 -1.5653381 7.9500732 -1.5653381 11.685921c0 2.5057526 0.27886963 5.345604 0.8366394 8.519562c0.5577698 3.1739655 1.6102905 6.41626 3.1576233 9.726883c1.5473328 3.3106384 3.6704102 6.530159 6.369232 9.658546c2.7168274 3.128395 6.171295 5.8619537 10.363495 8.200653c4.7499084 2.6120453 9.670776 4.381256 14.762543 5.3076324c5.091797 0.94155884 10.120605 1.4123383 15.086426 1.4123383c10.723358 0 20.394135 -1.7768097 29.01236 -5.330429c0.3418579 -3.9180756 0.51278687 -8.352501 0.51278687 -13.303268c0 -2.976532 -0.026977539 -5.9834366 -0.080963135 -9.020714c-0.053985596 -3.0372849 -0.1979065 -5.907509 -0.43182373 -8.61068c-1.3134155 0.4707718 -2.8607483 0.96432495 -4.641968 1.4806671c-1.7632446 0.51633453 -3.643402 0.98711395 -5.6405334 1.4123383c-1.9791565 0.41003418 -3.9942627 0.73654175 -6.0453796 0.9795227c-2.0331116 0.22779083 -3.940277 0.34169006 -5.7214966 0.34169006c-5.8474426 0 -10.435455 -1.2604752 -13.764008 -3.7814102c-3.3105469 -2.520935 -5.6855164 -5.7860107 -7.1249084 -9.795219l46.4198 0c0 -6.1656723 -0.41384888 -11.534065 -1.2414551 -16.105164c-0.8276367 -4.571106 -2.8427734 -8.724579 -6.0453796 -12.46043c-3.3105469 -3.918087 -7.6196594 -6.993332 -12.927368 -9.225731c-5.307678 -2.247589 -11.281097 -3.3713799 -17.920197 -3.3713799z" fill-rule="evenodd"/><path fill="#e06666" d="m450.72943 52.85506c-0.32385254 1.9590416 -0.6027527 4.153473 -0.8366394 6.5832977c-0.21591187 2.4146347 -0.32385254 4.9279823 -0.32385254 7.540043c0 2.718361 0.107940674 5.269676 0.32385254 7.6539383c0.23388672 2.369072 0.51278687 4.4875793 0.8366394 6.3554993l32.008057 0l-34.976776 26.857132c-0.55773926 2.520935 -0.9805603 5.04187 -1.2684326 7.5628204c-0.26989746 2.520935 -0.40481567 5.2317047 -0.40481567 8.132309c0 2.3235168 0.080963135 4.60907 0.2428894 6.856659c0.17990112 2.2323914 0.5397644 4.2825623 1.0795288 6.150482l66.49899 0c0.3418579 -1.9590454 0.62072754 -4.221817 0.8366699 -6.788315c0.21588135 -2.5664978 0.32385254 -5.246887 0.32385254 -8.041191c0 -2.7031784 -0.10797119 -5.3380127 -0.32385254 -7.904518c-0.21594238 -2.5664978 -0.494812 -4.927971 -0.8366699 -7.08445l-40.293427 0l39.807648 -29.659012c0.32385254 -3.1739578 0.5397949 -5.7860184 0.6477051 -7.836174c0.10797119 -2.0501633 0.1619873 -3.826973 0.1619873 -5.3304253c0 -2.1412811 -0.08099365 -4.1003265 -0.24291992 -5.8771324c-0.16192627 -1.7768059 -0.35083008 -3.5004654 -0.56677246 -5.1709633z" fill-rule="evenodd"/></g></svg>